#!OML:ASF E:/inclinewalkrobotboard/Project1/Captureday1/Session1/subject1.ASF
:FULLY-SPECIFIED
:DEGREES
213
root 0 0 0 1.0393176535356146 -3.6726511805429682 1.8303274880025162
lowerback 11.978642936995513 0.8494789935285274 -0.0628104076860723
upperback -4.230479209810804 1.0787406556572727 -0.5427653995716659
thorax -11.341317936019923 0.493785962533895 -0.7840595858714349
lowerneck -5.779754592271792 1.4864055879585 4.565047666458716
upperneck 18.034246142281795 2.9414710098947907 -8.344341439775393
head 6.588988591546436 1.0740897513621444 -3.224912974194452
rclavicle 2.0732570961547428E-16 -2.034699279896979E-15
rhumerus 19.887634435027202 14.348898430719144 -47.73778596422322
rradius 72.23149501684792
rwrist 27.129734587414195
rhand -34.628303597525154 -57.10389367931151
rfingers 7.125020000000035
rthumb -7.781380990563581 -87.15841239044052
lclavicle -1.1067060143864383E-16 -4.504349575293755E-16
lhumerus 21.029565460376947 -12.45544333102725 45.30150459372203
lradius 70.02925613851478
lwrist -22.264735828471398
lhand -44.78266455276873 -70.24344514761137
lfingers 7.125020000000026
lthumb -17.570770362027947 -40.92175906553893
rfemur -24.696782022865648 -2.3147194336558994 17.111227208402642
rtibia 54.508195456349135
rfoot -28.99499419862559 -16.654655802678498
rtoes -18.496602195980316
lfemur -25.899702742782026 2.4394861248583015 -18.063608372651373
ltibia 53.19643045994244
lfoot -30.791700977352452 -3.4570256158101516
ltoes -20.878855552174688
214
root 0 0 0 1.039364806987669 -3.672530269556743 1.8303677774006872
lowerback 11.978639632768846 0.8494927016905562 -0.06285335472949996
upperback -4.230510917299667 1.078750709590122 -0.5427924298423505
thorax -11.341350087473371 0.49379185218828814 -0.7840671271603468
lowerneck -5.780027283191919 1.486426697758466 4.564999774811456
upperneck 18.034399951377665 2.941483530726443 -8.344208779286635
head 6.589084725170249 1.0740975534725203 -3.2248634469083797
rclavicle 1.9900177511307947E-16 -2.0346078119589153E-15
rhumerus 19.88664104873723 14.34785802041609 -47.737773657086095
rradius 72.23073162872402
rwrist 27.13009736675432
rhand -34.628885883795945 -57.10449788331968
rfingers 7.125020000000035
rthumb -7.781925864936612 -87.15905479847906
lclavicle -1.1851148808810971E-16 -4.493455725557947E-16
lhumerus 21.02947654657803 -12.455120737849406 45.301957647455886
lradius 70.02902587525146
lwrist -22.264559162479706
lhand -44.78298918769102 -70.24503663807131
lfingers 7.125020000000026
lthumb -17.571093593692606 -40.92333200767314
rfemur -24.697108123749153 -2.314884072214696 17.111253078488687
rtibia 54.50912412936822
rfoot -28.994655592793194 -16.65460107268562
rtoes -18.49603205233536
lfemur -25.900419090659497 2.4395387987963923 -18.06374299417049
ltibia 53.19762184531247
lfoot -30.791073977932307 -3.4573857512961217
ltoes -20.87710239927989
215
root 0 0 0 1.039438340701873 -3.6723838253050314 1.8304074725323853
lowerback 11.978650562331532 0.8495050200095436 -0.06290437085506856
upperback -4.230546931369083 1.07875867066294 -0.5428209172451867
thorax -11.341396817120422 0.49379654389830124 -0.7840716440792619
lowerneck -5.78036091477278 1.486441716390293 4.564920801491404
upperneck 18.03456790811947 2.941485679101582 -8.344029380616014
head 6.589196498999327 1.0741000025761307 -3.224794404504679
rclavicle 1.9519472597438197E-16 -2.034569480160727E-15
rhumerus 19.88573920181407 14.346969322198959 -47.737980778259626
rradius 72.23007266272268
rwrist 27.130285311645597
rhand -34.62960548957008 -57.10515578625534
rfingers 7.125020000000035
rthumb -7.7826159740636935 -87.15971446981278
lclavicle -1.2231330292170947E-16 -4.486544962781932E-16
lhumerus 21.02924493125777 -12.454705453455265 45.30246318118113
lradius 70.02871502037623
lwrist -22.264389271856466
lhand -44.783262412247424 -70.24648074329272
lfingers 7.125020000000026
lthumb -17.57135249433089 -40.924819771614
rfemur -24.697250320544306 -2.31492443828583 17.111218794752936
rtibia 54.5093726614468
rfoot -28.9943840136434 -16.654631692964337
rtoes -18.495667747001352
lfemur -25.901250784763253 2.4394813526742203 -18.063873989636303
ltibia 53.19818690120145
lfoot -30.790927400395848 -3.4574506902548197
ltoes -20.87527949331715
216
root 0 0 0 1.0392351834553872 -3.672590909346041 1.830360524124293
lowerback 11.978598424706098 0.8495062284189222 -0.06277601739039698
upperback -4.230483826107768 1.078776688479809 -0.5427900479541627
thorax -11.341292477859483 0.4938037557646931 -0.784108531127413
lowerneck -5.779695883419944 1.4863863322983 4.565123227618131
upperneck 18.034239215618975 2.941432159591495 -8.344428631513479
head 6.5889758191122265 1.0740799336503224 -3.224961232494401
rclavicle 2.2041570995629047E-16 -2.03267314458066E-15
rhumerus 19.890125782071404 14.352006240927453 -47.73784302814408
rradius 72.23278738544899
rwrist 27.12832115142242
rhand -34.62624287212833 -57.10097219931109
rfingers 7.125020000000035
rthumb -7.779430055872429 -87.15608652261974
lclavicle -8.566367917593586E-17 -4.570215831429571E-16
lhumerus 21.028418117792462 -12.45517181073241 45.30202468096198
lradius 70.02822968140003
lwrist -22.263950526355767
lhand -44.78168291156168 -70.23850800017978
lfingers 7.125020000000026
lthumb -17.569726075603498 -40.916877304648196
rfemur -24.694570041206028 -2.3138599546402165 17.111103202990503
rtibia 54.50531082462924
rfoot -28.99848040812439 -16.655988433688467
rtoes -18.500705224639937
lfemur -25.898088513390583 2.4392494784640295 -18.0636356784337
ltibia 53.192122919731105
lfoot -30.79541515524771 -3.454693055613641
ltoes -20.884204673263067
217
root 0 0 0 1.0391615857273808 -3.672837248019508 1.8303121287674018
lowerback 11.978570977456686 0.8494899993262137 -0.06273586182198768
upperback -4.230468264383326 1.078761375809389 -0.5427495642076448
thorax -11.341254980545077 0.49379621532398094 -0.78408351205676
lowerneck -5.7793659663117545 1.4864123250693213 4.56521091221026
upperneck 18.03414086431542 2.941494014399929 -8.344614807146941
head 6.588884629374284 1.0741067957488553 -3.225028174654066
rclavicle 2.2322995653610243E-16 -2.031788466365975E-15
rhumerus 19.890656178177814 14.351421190434316 -47.73546258211097
rradius 72.23323782419433
rwrist 27.130194961149215
rhand -34.6248989363594 -57.10063192792916
rfingers 7.125020000000035
rthumb -7.778171097667534 -87.15539362593412
lclavicle -9.459747668756301E-17 -4.580040442199867E-16
lhumerus 21.031159346735052 -12.456001529279826 45.2997108390249
lradius 70.0308104828713
lwrist -22.266333733412733
lhand -44.78284880485858 -70.24714113000186
lfingers 7.125020000000026
lthumb -17.570863407227915 -40.92424448698173
rfemur -24.694831831886784 -2.314485136457631 17.11147995968533
rtibia 54.506324745244996
rfoot -28.996742920471554 -16.655210537871536
rtoes -18.497408903094524
lfemur -25.89670040285494 2.439256522986498 -18.06300377591359
ltibia 53.192634361466084
lfoot -30.794221497242958 -3.455208451554814
ltoes -20.88750566199723
